<svg xmlns="http://www.w3.org/2000/svg" viewBox="-2.27817 -2.27817 15.56 15.56">
	<path d="M 0 0 A 1 1 0 0 0 11 11 A 1 1 0 0 0 0 0 M 4 0 L 7 0 L 7 4 L 6 4 L 6 1 L 4 1 L 4 0 M 4 2 L 5 2 L 5 7 L 2 7 L 2 6 L 4 6 L 4 2 M 4 8 L 5 8 L 5 11 L 4 11 L 4 8 M 6 11 L 6 5 L 7 5 L 7 6 L 11 6 L 11 7 L 7 7 L 7 11 L 6 11 M 8 4 L 11 4 L 11 5 L 8 5 L 8 4 M 3 4 L 3 5 L 1 5 L 1 7 L 0 7 L 0 4 L 3 4 M 2 1 A 1 1 0 0 1 2 3 A 1 1 0 0 1 2 1 M 9 8 A 1 1 0 0 1 9 10 A 1 1 0 0 1 9 8 M 9 1 A 1 1 0 0 1 9 3 A 1 1 0 0 1 9 1 M 2 8 A 1 1 0 0 1 2 10 A 1 1 0 0 1 2 8" fill="#38404b"/>
</svg>